<svg width="1144" height="179" viewBox="0 0 1144 179" fill="none" xmlns="http://www.w3.org/2000/svg">
<path d="M3.05176e-05 169.5H42.9V144.4H3.05176e-05V169.5Z" fill="#40AB5D"/>
<path d="M3.05176e-05 134.7H42.9V109.6H3.05176e-05V134.7Z" fill="url(#paint0_linear)"/>
<path d="M3.05176e-05 99.9H42.9V74.8H3.05176e-05V99.9Z" fill="url(#paint1_linear)"/>
<path d="M155.5 65.1H198.4V40H155.5V65.1Z" fill="url(#paint2_linear)"/>
<path d="M103.7 65.1H146.6V40H103.7V65.1Z" fill="url(#paint3_linear)"/>
<path d="M51.7999 65.1H94.7V40H51.7999V65.1Z" fill="url(#paint4_linear)"/>
<path d="M3.05176e-05 65.1H42.9V40H3.05176e-05V65.1Z" fill="url(#paint5_linear)"/>
<path d="M51.7999 99.9H94.7V74.8H51.7999V99.9Z" fill="url(#paint6_linear)"/>
<path d="M103.7 99.9H146.6V74.8H103.7V99.9Z" fill="url(#paint7_linear)"/>
<path d="M103.7 134.7H146.6V109.6H103.7V134.7Z" fill="url(#paint8_linear)"/>
<path d="M325.8 176L322.4 161C314.667 172.6 303.467 178.4 288.8 178.4C274.533 178.4 263.533 173.733 255.8 164.4C248.067 155.067 244.2 141.267 244.2 123C244.2 104.867 248.067 91.2 255.8 82C263.533 72.6667 274.533 68 288.8 68C300.933 68 310.8 72.0667 318.4 80.2V31H358.2V176H325.8ZM301.2 97.4C289.733 97.4 284 104.267 284 118V128.6C284 142.2 289.733 149 301.2 149C307.067 149 311.467 146.933 314.4 142.8C317.333 138.667 318.8 133.267 318.8 126.6V120C318.8 113.333 317.333 107.933 314.4 103.8C311.467 99.5333 307.067 97.4 301.2 97.4ZM425.198 68C444.532 68 459.265 72.5333 469.398 81.6C479.665 90.6667 484.798 104.533 484.798 123.2V130H405.598C405.598 137.6 407.265 143.333 410.598 147.2C414.065 151.067 419.465 153 426.798 153C433.465 153 438.332 151.6 441.398 148.8C444.598 146 446.198 142.267 446.198 137.6H484.798C484.798 150.4 479.932 160.4 470.198 167.6C460.465 174.8 446.265 178.4 427.598 178.4C407.998 178.4 392.798 173.867 381.998 164.8C371.198 155.6 365.798 141.733 365.798 123.2C365.798 105.067 371.065 91.3333 381.598 82C392.132 72.6667 406.665 68 425.198 68ZM426.798 93.4C414.265 93.4 407.265 99.3333 405.798 111.2H444.598C444.598 105.733 442.998 101.4 439.798 98.2C436.732 95 432.398 93.4 426.798 93.4ZM546.797 68C566.13 68 580.864 72.5333 590.997 81.6C601.264 90.6667 606.397 104.533 606.397 123.2V130H527.197C527.197 137.6 528.864 143.333 532.197 147.2C535.664 151.067 541.064 153 548.397 153C555.064 153 559.93 151.6 562.997 148.8C566.197 146 567.797 142.267 567.797 137.6H606.397C606.397 150.4 601.53 160.4 591.797 167.6C582.064 174.8 567.864 178.4 549.197 178.4C529.597 178.4 514.397 173.867 503.597 164.8C492.797 155.6 487.397 141.733 487.397 123.2C487.397 105.067 492.664 91.3333 503.197 82C513.73 72.6667 528.264 68 546.797 68ZM548.397 93.4C535.864 93.4 528.864 99.3333 527.397 111.2H566.197C566.197 105.733 564.597 101.4 561.397 98.2C558.33 95 553.997 93.4 548.397 93.4ZM662.195 149H708.795V176H605.795V163L650.195 97.4H608.195V70.4H706.995V82.8L662.195 149ZM785.928 68C798.195 68 807.395 71.4 813.528 78.2C819.661 85 822.728 94.8 822.728 107.6V176H782.928V112.4C782.928 107.867 781.728 104.267 779.328 101.6C777.061 98.8 773.795 97.4 769.528 97.4C764.595 97.4 760.595 99 757.528 102.2C754.461 105.4 752.928 109.333 752.928 114V176H713.128V70.4H745.728L748.328 86.4C752.461 80.8 757.861 76.3333 764.528 73C771.328 69.6667 778.461 68 785.928 68ZM911.327 176L908.727 160C904.593 165.733 899.127 170.267 892.327 173.6C885.66 176.8 878.593 178.4 871.127 178.4C858.86 178.4 849.66 175 843.527 168.2C837.393 161.4 834.327 151.6 834.327 138.8V70.4H874.127V134C874.127 138.533 875.26 142.2 877.527 145C879.927 147.667 883.26 149 887.527 149C892.46 149 896.46 147.4 899.527 144.2C902.593 141 904.127 137.067 904.127 132.4V70.4H943.927V176H911.327ZM1026.73 70.4V97.4H1004.33V137.6C1004.33 142.4 1005.13 145.933 1006.73 148.2C1008.33 150.333 1011.26 151.4 1015.53 151.4H1026.73V174.8C1023.53 175.867 1019.39 176.733 1014.33 177.4C1009.26 178.067 1004.86 178.4 1001.13 178.4C989.392 178.4 980.325 176.267 973.925 172C967.658 167.733 964.525 160.467 964.525 150.2V97.4H949.725V70.4H966.125L974.725 38.4H1004.33V70.4H1026.73ZM1083.59 68C1097.73 68 1109.66 70.8 1119.39 76.4C1129.26 81.8667 1134.19 90.4 1134.19 102H1097.19C1097.19 98.1333 1095.46 95.4 1091.99 93.8C1089.59 92.4667 1086.59 91.8 1082.99 91.8C1073.39 91.8 1068.59 94.0667 1068.59 98.6C1068.59 101.133 1070.26 102.933 1073.59 104C1076.93 105.067 1082.39 106.2 1089.99 107.4C1099.33 108.733 1107.13 110.333 1113.39 112.2C1119.66 113.933 1125.13 117.133 1129.79 121.8C1134.46 126.333 1136.79 132.733 1136.79 141C1136.79 154.467 1131.73 164.067 1121.59 169.8C1111.59 175.533 1098.46 178.4 1082.19 178.4C1072.86 178.4 1064.06 177.133 1055.79 174.6C1047.53 171.933 1040.79 167.867 1035.59 162.4C1030.39 156.933 1027.79 150 1027.79 141.6H1064.79V142.4C1064.93 146.933 1066.79 150.133 1070.39 152C1074.13 153.733 1078.06 154.6 1082.19 154.6C1093.26 154.6 1098.79 152 1098.79 146.8C1098.79 144.133 1097.06 142.2 1093.59 141C1090.13 139.8 1084.46 138.533 1076.59 137.2C1067.13 135.6 1059.33 133.867 1053.19 132C1047.19 130.133 1041.93 127 1037.39 122.6C1032.86 118.067 1030.59 111.8 1030.59 103.8C1030.59 90.8667 1035.46 81.6667 1045.19 76.2C1055.06 70.7333 1067.86 68 1083.59 68Z" fill="black"/>
<defs>
<linearGradient id="paint0_linear" x1="21.2399" y1="109.383" x2="21.6433" y2="135.069" gradientUnits="userSpaceOnUse">
<stop stop-color="#358C7B"/>
<stop offset="0.5256" stop-color="#33A65E"/>
</linearGradient>
<linearGradient id="paint1_linear" x1="43.5307" y1="76.0888" x2="-0.650104" y2="98.6002" gradientUnits="userSpaceOnUse">
<stop stop-color="#222B90"/>
<stop offset="1" stop-color="#367B99"/>
</linearGradient>
<linearGradient id="paint2_linear" x1="198.392" y1="52.5402" x2="155.528" y2="52.5402" gradientUnits="userSpaceOnUse">
<stop stop-color="#FF9900"/>
<stop offset="1" stop-color="#FF8000"/>
</linearGradient>
<linearGradient id="paint3_linear" x1="146.552" y1="52.5402" x2="103.688" y2="52.5402" gradientUnits="userSpaceOnUse">
<stop stop-color="#FF8000"/>
<stop offset="1" stop-color="#CC1953"/>
</linearGradient>
<linearGradient id="paint4_linear" x1="94.7122" y1="52.5402" x2="51.8481" y2="52.5402" gradientUnits="userSpaceOnUse">
<stop stop-color="#CC1953"/>
<stop offset="1" stop-color="#241284"/>
</linearGradient>
<linearGradient id="paint5_linear" x1="42.9231" y1="52.5402" x2="0.0589868" y2="52.5402" gradientUnits="userSpaceOnUse">
<stop stop-color="#222B90"/>
<stop offset="1" stop-color="#3559A6"/>
</linearGradient>
<linearGradient id="paint6_linear" x1="96.4041" y1="80.5826" x2="50.1562" y2="94.1064" gradientUnits="userSpaceOnUse">
<stop stop-color="#CC1953"/>
<stop offset="1" stop-color="#241284"/>
</linearGradient>
<linearGradient id="paint7_linear" x1="148.078" y1="95.7004" x2="102.162" y2="78.9884" gradientUnits="userSpaceOnUse">
<stop offset="0.00266984" stop-color="#FFCC00"/>
<stop offset="0.9999" stop-color="#CE1938"/>
</linearGradient>
<linearGradient id="paint8_linear" x1="142.95" y1="138.601" x2="107.291" y2="105.696" gradientUnits="userSpaceOnUse">
<stop offset="0.00266984" stop-color="#FFD100"/>
<stop offset="1" stop-color="#FD5A22"/>
</linearGradient>
</defs>
</svg>
