<svg width="1011" height="153" viewBox="0 0 1011 153" fill="none" xmlns="http://www.w3.org/2000/svg">
<path d="M6.00003 151.5H48.9V126.4H6.00003V151.5Z" fill="#40AB5D"/>
<path d="M6.00003 116.7H48.9V91.6H6.00003V116.7Z" fill="url(#paint0_linear)"/>
<path d="M6.00003 81.9H48.9V56.8H6.00003V81.9Z" fill="url(#paint1_linear)"/>
<path d="M161.5 47.1H204.4V22H161.5V47.1Z" fill="url(#paint2_linear)"/>
<path d="M109.7 47.1H152.6V22H109.7V47.1Z" fill="url(#paint3_linear)"/>
<path d="M57.7999 47.1H100.7V22H57.7999V47.1Z" fill="url(#paint4_linear)"/>
<path d="M6.00003 47.1H48.9V22H6.00003V47.1Z" fill="url(#paint5_linear)"/>
<path d="M57.7999 81.9H100.7V56.8H57.7999V81.9Z" fill="url(#paint6_linear)"/>
<path d="M109.7 81.9H152.6V56.8H109.7V81.9Z" fill="url(#paint7_linear)"/>
<path d="M109.7 116.7H152.6V91.6H109.7V116.7Z" fill="url(#paint8_linear)"/>
<path d="M320.751 150.509L317.803 134.939C311.098 146.98 301.387 153 288.67 153C276.3 153 266.763 148.156 260.058 138.468C253.353 128.78 250 114.456 250 95.4953C250 76.673 253.353 62.4871 260.058 52.9376C266.763 43.2497 276.3 38.4057 288.67 38.4057C299.19 38.4057 307.745 42.6269 314.335 51.0692V0H348.843V150.509H320.751ZM299.422 68.9227C289.48 68.9227 284.508 76.0502 284.508 90.3053V101.308C284.508 115.425 289.48 122.483 299.422 122.483C304.508 122.483 308.323 120.338 310.867 116.047C313.41 111.757 314.682 106.152 314.682 99.232V92.3813C314.682 85.4613 313.41 79.8562 310.867 75.5658C308.323 71.137 304.508 68.9227 299.422 68.9227Z" fill="black"/>
<path d="M406.934 38.4057C423.697 38.4057 436.471 43.1113 445.258 52.5224C454.159 61.9335 458.61 76.327 458.61 95.7029V102.761H389.94C389.94 110.65 391.385 116.601 394.275 120.615C397.281 124.628 401.963 126.635 408.321 126.635C414.102 126.635 418.321 125.182 420.98 122.275C423.755 119.369 425.142 115.494 425.142 110.65H458.61C458.61 123.936 454.39 134.316 445.951 141.79C437.512 149.263 425.2 153 409.015 153C392.021 153 378.842 148.294 369.478 138.883C360.114 129.334 355.432 114.94 355.432 95.7029C355.432 76.8806 359.998 62.6255 369.131 52.9376C378.264 43.2497 390.865 38.4057 406.934 38.4057ZM408.321 64.7707C397.454 64.7707 391.385 70.9294 390.113 83.2469H423.755C423.755 77.5726 422.367 73.0746 419.593 69.7531C416.934 66.4315 413.177 64.7707 408.321 64.7707Z" fill="black"/>
<path d="M512.539 38.4057C495.776 38.4057 483.002 43.1113 474.216 52.5224C465.314 61.9335 460.863 76.327 460.863 95.7029V102.761H529.533C529.533 110.65 528.088 116.601 525.198 120.615C522.192 124.628 517.51 126.635 511.152 126.635C505.371 126.635 501.152 125.182 498.493 122.275C495.718 119.369 494.331 115.494 494.331 110.65H460.863C460.863 123.936 465.083 134.316 473.522 141.79C481.961 149.263 494.273 153 510.458 153C527.452 153 540.631 148.294 549.995 138.883C559.36 129.334 564.042 114.94 564.042 95.7029C564.042 76.8806 559.475 62.6255 550.342 52.9376C541.209 43.2497 528.608 38.4057 512.539 38.4057ZM511.152 64.7707C522.019 64.7707 528.088 70.9294 529.36 83.2469H495.718C495.718 77.5726 497.106 73.0746 499.88 69.7531C502.539 66.4315 506.296 64.7707 511.152 64.7707Z" fill="black"/>
<path d="M612.421 122.483H652.826V150.509H563.52V137.015L602.017 68.9227H565.601V40.8969H651.265V53.768L612.421 122.483Z" fill="black"/>
<path d="M742.594 150.509L728.374 89.4749H727.68L713.287 150.509H679.646L646.178 40.8969H683.288L697.16 105.668H698.374L712.767 40.8969H747.102L760.975 105.668H762.189L776.235 40.8969H809.876L776.235 150.509H742.594Z" fill="black"/>
<path d="M855.586 38.4057C872.349 38.4057 885.123 43.1113 893.909 52.5224C902.811 61.9335 907.262 76.327 907.262 95.7029V102.761H838.592C838.592 110.65 840.037 116.601 842.927 120.615C845.933 124.628 850.615 126.635 856.973 126.635C862.754 126.635 866.973 125.182 869.632 122.275C872.407 119.369 873.794 115.494 873.794 110.65H907.262C907.262 123.936 903.042 134.316 894.603 141.79C886.164 149.263 873.852 153 857.667 153C840.673 153 827.494 148.294 818.13 138.883C808.765 129.334 804.083 114.94 804.083 95.7029C804.083 76.8806 808.65 62.6255 817.783 52.9376C826.916 43.2497 839.517 38.4057 855.586 38.4057ZM856.973 64.7707C846.106 64.7707 840.037 70.9294 838.765 83.2469H872.407C872.407 77.5726 871.019 73.0746 868.245 69.7531C865.586 66.4315 861.829 64.7707 856.973 64.7707Z" fill="black"/>
<path d="M946.665 51.0692C953.255 42.6269 961.809 38.4057 972.33 38.4057C984.7 38.4057 994.237 43.2497 1000.94 52.9376C1007.65 62.4871 1011 76.673 1011 95.4953C1011 114.456 1007.65 128.78 1000.94 138.468C994.237 148.156 984.7 153 972.33 153C959.613 153 949.902 146.98 943.197 134.939L940.249 150.509H912.157V0H946.665V51.0692ZM961.578 68.9227C956.492 68.9227 952.677 71.137 950.133 75.5658C947.59 79.8562 946.318 85.4613 946.318 92.3813V99.232C946.318 106.152 947.59 111.757 950.133 116.047C952.677 120.338 956.492 122.483 961.578 122.483C971.52 122.483 976.492 115.425 976.492 101.308V90.3053C976.492 76.0502 971.52 68.9227 961.578 68.9227Z" fill="black"/>
<defs>
<linearGradient id="paint0_linear" x1="27.2399" y1="91.3832" x2="27.6433" y2="117.069" gradientUnits="userSpaceOnUse">
<stop stop-color="#358C7B"/>
<stop offset="0.5256" stop-color="#33A65E"/>
</linearGradient>
<linearGradient id="paint1_linear" x1="49.5307" y1="58.0888" x2="5.3499" y2="80.6002" gradientUnits="userSpaceOnUse">
<stop stop-color="#222B90"/>
<stop offset="1" stop-color="#367B99"/>
</linearGradient>
<linearGradient id="paint2_linear" x1="204.392" y1="34.5402" x2="161.528" y2="34.5402" gradientUnits="userSpaceOnUse">
<stop stop-color="#FF9900"/>
<stop offset="1" stop-color="#FF8000"/>
</linearGradient>
<linearGradient id="paint3_linear" x1="152.552" y1="34.5402" x2="109.688" y2="34.5402" gradientUnits="userSpaceOnUse">
<stop stop-color="#FF8000"/>
<stop offset="1" stop-color="#CC1953"/>
</linearGradient>
<linearGradient id="paint4_linear" x1="100.712" y1="34.5402" x2="57.8481" y2="34.5402" gradientUnits="userSpaceOnUse">
<stop stop-color="#CC1953"/>
<stop offset="1" stop-color="#241284"/>
</linearGradient>
<linearGradient id="paint5_linear" x1="48.9231" y1="34.5402" x2="6.05899" y2="34.5402" gradientUnits="userSpaceOnUse">
<stop stop-color="#222B90"/>
<stop offset="1" stop-color="#3559A6"/>
</linearGradient>
<linearGradient id="paint6_linear" x1="102.404" y1="62.5826" x2="56.1562" y2="76.1064" gradientUnits="userSpaceOnUse">
<stop stop-color="#CC1953"/>
<stop offset="1" stop-color="#241284"/>
</linearGradient>
<linearGradient id="paint7_linear" x1="154.078" y1="77.7004" x2="108.162" y2="60.9884" gradientUnits="userSpaceOnUse">
<stop offset="0.00266984" stop-color="#FFCC00"/>
<stop offset="0.9999" stop-color="#CE1938"/>
</linearGradient>
<linearGradient id="paint8_linear" x1="148.95" y1="120.601" x2="113.291" y2="87.6964" gradientUnits="userSpaceOnUse">
<stop offset="0.00266984" stop-color="#FFD100"/>
<stop offset="1" stop-color="#FD5A22"/>
</linearGradient>
</defs>
</svg>
